<svg width="507.401" height="72.202" viewBox="0 0 507.401 72.202" xmlns="http://www.w3.org/2000/svg"><g id="svgGroup" stroke-linecap="round" fill-rule="nonzero" font-size="9pt" stroke="#00000000" stroke-width="0" style="stroke:#00000000;stroke-width:0;">
<path fill="#219ebc" d="M 0.001 64.501 L 0.001 7.701 Q 0.001 3.901 2.001 2.501 A 6.694 6.694 0 0 1 3.838 1.621 Q 4.713 1.345 5.777 1.215 A 16.794 16.794 0 0 1 7.801 1.101 Q 12.547 1.101 15.127 4.849 A 11.258 11.258 0 0 1 15.601 5.601 L 32.001 34.101 L 48.201 5.701 A 12.677 12.677 0 0 1 49.245 4.137 Q 49.88 3.331 50.576 2.778 A 5.802 5.802 0 0 1 51.851 2.001 A 9.23 9.23 0 0 1 53.578 1.453 Q 55.176 1.101 57.301 1.101 A 9.501 9.501 0 0 1 59.913 1.428 Q 63.901 2.571 63.901 7.701 L 63.901 64.501 A 9.501 9.501 0 0 1 63.574 67.113 Q 62.431 71.101 57.301 71.101 A 9.501 9.501 0 0 1 54.689 70.774 Q 50.701 69.631 50.701 64.501 L 50.701 23.601 L 38.301 46.201 Q 35.901 50.801 31.901 50.801 Q 27.901 50.801 25.501 46.201 L 13.101 23.601 L 13.101 64.501 Q 13.101 71.101 6.601 71.101 A 9.501 9.501 0 0 1 3.989 70.774 Q 0.001 69.631 0.001 64.501 Z" id="0" vector-effect="non-scaling-stroke" />
<path fill="#219ebc" d="M 103.701 42.501 L 103.701 39.301 Q 103.701 35.101 101.901 33.851 Q 100.101 32.601 96.801 32.601 A 24.36 24.36 0 0 0 92.314 33.03 A 27.694 27.694 0 0 0 91.251 33.251 Q 88.401 33.901 85.701 35.001 Q 82.801 36.201 80.751 35.851 A 4.354 4.354 0 0 1 78.468 34.676 Q 77.925 34.165 77.453 33.443 A 8.881 8.881 0 0 1 77.301 33.201 Q 76.001 30.901 76.701 28.751 Q 77.269 27.004 79.357 25.818 A 10.834 10.834 0 0 1 80.401 25.301 A 43.977 43.977 0 0 1 86.614 23.097 A 49.879 49.879 0 0 1 88.151 22.701 A 36.802 36.802 0 0 1 96.799 21.701 L 96.801 21.701 Q 102.766 21.701 106.881 23.265 A 15.021 15.021 0 0 1 110.901 25.501 A 10.916 10.916 0 0 1 114.139 29.911 Q 115.701 33.598 115.701 39.301 L 115.701 60.301 Q 115.701 61.301 115.801 61.701 A 4.375 4.375 0 0 0 116.013 62.413 Q 116.34 63.228 116.951 63.551 A 5.747 5.747 0 0 0 118.673 64.146 A 5.48 5.48 0 0 0 118.701 64.151 A 10.072 10.072 0 0 1 119.437 64.301 Q 119.772 64.383 120.062 64.482 A 5.625 5.625 0 0 1 120.251 64.551 A 0.926 0.926 0 0 1 120.805 65.145 Q 120.869 65.329 120.89 65.562 A 2.669 2.669 0 0 1 120.901 65.801 Q 120.901 67.701 119.851 69.201 Q 118.801 70.701 116.401 71.201 Q 115.301 71.401 114.101 71.551 A 19.846 19.846 0 0 1 111.964 71.698 A 22.171 22.171 0 0 1 111.601 71.701 Q 108.335 71.701 106.387 70.475 A 5.675 5.675 0 0 1 104.101 67.701 A 19.351 19.351 0 0 1 96.617 71.134 A 25.476 25.476 0 0 1 92.801 71.701 Q 84.901 72.101 79.651 68.301 Q 74.401 64.501 74.401 57.301 A 14.211 14.211 0 0 1 75.236 52.359 A 12.789 12.789 0 0 1 77.451 48.551 A 19.786 19.786 0 0 1 83.455 43.75 A 24.078 24.078 0 0 1 85.351 42.851 Q 90.201 40.801 95.401 40.701 A 13.991 13.991 0 0 1 96.613 40.648 A 12.529 12.529 0 0 1 99.801 41.051 A 20.485 20.485 0 0 1 103.015 42.176 A 18.41 18.41 0 0 1 103.701 42.501 Z M 92.501 60.901 A 29.305 29.305 0 0 0 95.89 60.523 Q 97.568 60.23 98.955 59.74 A 13.06 13.06 0 0 0 100.951 58.851 A 7.185 7.185 0 0 0 102.448 57.769 Q 103.913 56.363 103.913 54.366 A 5.674 5.674 0 0 0 103.901 54.001 A 3.81 3.81 0 0 0 103.652 52.755 Q 103.228 51.687 102.095 51.173 A 4.282 4.282 0 0 0 101.651 51.001 Q 99.501 50.301 96.401 50.501 A 16.989 16.989 0 0 0 93.37 50.89 Q 91.671 51.276 90.328 52.029 A 9.122 9.122 0 0 0 89.101 52.851 A 9.669 9.669 0 0 0 87.842 54.036 Q 86.428 55.652 86.501 57.401 Q 86.597 59.044 87.954 59.986 A 4.306 4.306 0 0 0 88.051 60.051 Q 89.483 60.99 92.43 60.903 A 17.891 17.891 0 0 0 92.501 60.901 Z" id="1" vector-effect="non-scaling-stroke"/>
<path fill="#219ebc" d="M 147.201 72.101 Q 143.001 72.101 139.051 71.151 Q 135.101 70.201 131.601 68.001 A 9.347 9.347 0 0 1 130.231 66.945 Q 128.744 65.54 128.601 63.851 A 5.25 5.25 0 0 1 128.582 63.406 Q 128.582 62.008 129.34 60.701 A 7.711 7.711 0 0 1 130.301 59.401 A 7.991 7.991 0 0 1 131.473 58.372 Q 132.778 57.45 134.151 57.45 A 4.097 4.097 0 0 1 134.251 57.451 A 6.953 6.953 0 0 1 135.894 57.706 Q 137.351 58.101 139.101 59.101 Q 143.001 61.201 147.901 61.201 Q 151.701 61.201 153.201 60.251 Q 154.701 59.301 154.701 56.701 Q 154.701 55.601 153.951 54.751 A 2.952 2.952 0 0 0 153.402 54.281 Q 152.779 53.854 151.723 53.453 A 17.364 17.364 0 0 0 150.851 53.151 Q 148.501 52.401 143.801 51.501 A 34.757 34.757 0 0 1 139.178 50.302 Q 136.845 49.51 134.995 48.43 A 16.417 16.417 0 0 1 132.551 46.701 Q 128.89 43.55 128.622 37.479 A 22.167 22.167 0 0 1 128.601 36.501 Q 128.601 32.001 131.001 28.651 Q 133.401 25.301 137.551 23.451 A 21.308 21.308 0 0 1 143.753 21.782 A 26.701 26.701 0 0 1 146.901 21.601 A 33.354 33.354 0 0 1 154.442 22.423 A 27.684 27.684 0 0 1 159.701 24.201 A 9.527 9.527 0 0 1 161.187 25.108 Q 162.827 26.348 163.151 28.001 A 4.981 4.981 0 0 1 163.245 28.959 Q 163.245 30.1 162.707 31.215 A 7.3 7.3 0 0 1 161.901 32.501 A 7.683 7.683 0 0 1 160.861 33.618 Q 159.592 34.716 158.151 34.751 A 7.377 7.377 0 0 1 157.971 34.753 Q 155.975 34.753 153.201 33.701 Q 151.701 33.101 150.201 32.851 Q 148.701 32.601 147.101 32.601 A 16.266 16.266 0 0 0 145.604 32.665 Q 144.137 32.801 143.253 33.229 A 2.911 2.911 0 0 0 142.601 33.651 Q 141.401 34.701 141.401 36.101 Q 141.401 37.101 142.001 37.901 A 2.497 2.497 0 0 0 142.465 38.359 Q 142.984 38.765 143.876 39.158 A 14.133 14.133 0 0 0 144.601 39.451 A 25.145 25.145 0 0 0 145.9 39.893 Q 147.782 40.482 150.801 41.201 A 42.1 42.1 0 0 1 155.812 42.658 Q 158.3 43.564 160.272 44.719 A 18.46 18.46 0 0 1 163.351 46.951 A 12.729 12.729 0 0 1 167.512 55.404 A 17.731 17.731 0 0 1 167.601 57.201 A 15.425 15.425 0 0 1 166.921 61.908 A 11.836 11.836 0 0 1 161.851 68.401 A 22.058 22.058 0 0 1 154.968 71.261 Q 152.103 71.943 148.766 72.071 A 40.84 40.84 0 0 1 147.201 72.101 Z" id="2" vector-effect="non-scaling-stroke"/>
<path fill="#219ebc" d="M 180.801 59.001 L 180.801 33.701 L 178.401 33.701 Q 172.484 33.701 171.871 29.361 A 7.59 7.59 0 0 1 171.801 28.301 A 7.74 7.74 0 0 1 171.951 26.724 Q 172.26 25.242 173.201 24.301 A 3.796 3.796 0 0 1 174.435 23.504 Q 175.611 23.011 177.451 22.921 A 17.472 17.472 0 0 1 178.301 22.901 L 180.801 22.901 L 180.801 12.801 A 9.923 9.923 0 0 1 180.974 10.884 Q 181.336 9.05 182.451 7.901 Q 184.052 6.251 186.926 6.202 A 10.381 10.381 0 0 1 187.101 6.201 A 8.371 8.371 0 0 1 189.592 6.54 Q 192.33 7.394 193.047 10.399 A 10.383 10.383 0 0 1 193.301 12.801 L 193.301 22.901 L 199.701 22.901 Q 205.618 22.901 206.23 27.241 A 7.59 7.59 0 0 1 206.301 28.301 A 6.349 6.349 0 0 1 205.907 30.632 Q 204.817 33.407 200.707 33.673 A 14.03 14.03 0 0 1 199.801 33.701 L 193.301 33.701 L 193.301 55.701 Q 193.301 58.597 194.653 59.747 A 2.852 2.852 0 0 0 194.851 59.901 Q 195.998 60.715 197.885 60.927 A 12.732 12.732 0 0 0 199.301 61.001 Q 202.522 61.001 204.307 61.854 A 5.423 5.423 0 0 1 204.501 61.951 A 2.948 2.948 0 0 1 205.822 63.423 Q 206.301 64.499 206.301 66.201 A 7.698 7.698 0 0 1 206.161 67.716 Q 205.844 69.297 204.801 70.201 A 6.61 6.61 0 0 1 202.654 71.427 A 9.228 9.228 0 0 1 200.901 71.851 A 33.624 33.624 0 0 1 197.459 72.167 A 39.552 39.552 0 0 1 195.801 72.201 A 36.936 36.936 0 0 1 192.405 72.053 Q 190.659 71.892 189.157 71.554 A 18.966 18.966 0 0 1 187.651 71.151 Q 184.301 70.101 182.551 67.201 Q 181.307 65.14 180.947 61.867 A 26.291 26.291 0 0 1 180.801 59.001 Z" id="3" vector-effect="non-scaling-stroke"/>
<path fill="#219ebc" d="M 249.901 49.701 L 224.501 49.701 A 23.921 23.921 0 0 0 224.951 52.95 Q 225.733 56.581 227.64 58.409 A 6.529 6.529 0 0 0 228.151 58.851 A 11.381 11.381 0 0 0 232.996 61.012 A 15.899 15.899 0 0 0 236.101 61.301 A 14.679 14.679 0 0 0 239.626 60.901 A 10.206 10.206 0 0 0 244.501 58.201 A 19.54 19.54 0 0 1 245.904 56.92 Q 247.41 55.682 248.751 55.201 A 3.557 3.557 0 0 1 249.961 54.988 Q 251.172 54.988 252.472 55.809 A 7.946 7.946 0 0 1 252.901 56.101 A 6.75 6.75 0 0 1 254.337 57.421 A 5.123 5.123 0 0 1 255.451 60.151 A 4.564 4.564 0 0 1 255.474 60.615 Q 255.474 62.402 254.08 64.268 A 11.727 11.727 0 0 1 253.301 65.201 A 20.994 20.994 0 0 1 248.24 69.284 A 19.092 19.092 0 0 1 245.551 70.551 A 25.395 25.395 0 0 1 239.12 72.04 A 31.4 31.4 0 0 1 235.901 72.201 A 29.341 29.341 0 0 1 228.23 71.247 A 21.951 21.951 0 0 1 218.701 65.951 A 19.517 19.517 0 0 1 213.649 57.791 Q 212.597 54.638 212.26 50.787 A 43.442 43.442 0 0 1 212.101 47.001 A 35.438 35.438 0 0 1 212.645 40.627 Q 213.368 36.673 215.051 33.451 A 21.772 21.772 0 0 1 220.312 26.791 A 20.778 20.778 0 0 1 223.201 24.751 Q 228.401 21.701 235.201 21.701 A 24.823 24.823 0 0 1 240.712 22.284 A 18.416 18.416 0 0 1 246.751 24.801 Q 251.501 27.901 254.001 32.751 Q 256.501 37.601 256.501 43.001 A 17.04 17.04 0 0 1 256.419 44.734 Q 256.129 47.564 254.801 48.501 A 5.721 5.721 0 0 1 253.19 49.272 Q 251.813 49.701 249.901 49.701 Z M 225.001 40.101 L 244.101 40.101 Q 242.301 31.501 235.001 31.501 A 13.077 13.077 0 0 0 232.212 31.782 Q 230.265 32.207 228.799 33.274 A 8.194 8.194 0 0 0 228.501 33.501 Q 226.572 35.044 225.536 38.134 A 18.671 18.671 0 0 0 225.001 40.101 Z" id="4" vector-effect="non-scaling-stroke"/>
<path fill="#219ebc" d="M 266.601 64.501 L 266.601 29.501 A 9.501 9.501 0 0 1 266.928 26.889 Q 268.07 22.901 273.201 22.901 Q 275.301 22.901 277.001 23.951 A 3.271 3.271 0 0 1 278.352 25.653 Q 278.701 26.587 278.701 27.901 L 278.701 29.401 A 13.266 13.266 0 0 1 283.469 24.242 A 16.242 16.242 0 0 1 284.201 23.801 Q 287.901 21.701 292.001 21.701 A 8.383 8.383 0 0 1 293.981 21.921 A 5.479 5.479 0 0 1 296.901 23.651 Q 298.601 25.601 298.601 28.601 A 8.321 8.321 0 0 1 298.469 30.136 Q 298.305 31.008 297.938 31.683 A 3.977 3.977 0 0 1 297.101 32.751 A 5.173 5.173 0 0 1 296.1 33.468 Q 295.045 34.036 293.901 33.901 Q 293.101 33.801 292.151 33.751 Q 291.201 33.701 290.101 33.701 A 11.845 11.845 0 0 0 285.924 34.416 A 10.638 10.638 0 0 0 282.351 36.651 Q 279.471 39.348 279.224 44.344 A 19.393 19.393 0 0 0 279.201 45.301 L 279.201 64.501 Q 279.201 70.162 274.565 70.968 A 9.739 9.739 0 0 1 272.901 71.101 A 8.634 8.634 0 0 1 270.369 70.762 Q 266.601 69.606 266.601 64.501 Z" id="5" vector-effect="non-scaling-stroke"/>
<path fill="#ffb703" d="M 305.801 64.501 L 305.801 7.701 Q 305.801 3.901 307.801 2.501 A 6.694 6.694 0 0 1 309.638 1.621 Q 310.513 1.345 311.577 1.215 A 16.794 16.794 0 0 1 313.601 1.101 Q 318.347 1.101 320.927 4.849 A 11.258 11.258 0 0 1 321.401 5.601 L 337.801 34.101 L 354.001 5.701 A 12.677 12.677 0 0 1 355.045 4.137 Q 355.68 3.331 356.376 2.778 A 5.802 5.802 0 0 1 357.651 2.001 A 9.23 9.23 0 0 1 359.378 1.453 Q 360.976 1.101 363.101 1.101 A 9.501 9.501 0 0 1 365.713 1.428 Q 369.701 2.571 369.701 7.701 L 369.701 64.501 A 9.501 9.501 0 0 1 369.374 67.113 Q 368.231 71.101 363.101 71.101 A 9.501 9.501 0 0 1 360.489 70.774 Q 356.501 69.631 356.501 64.501 L 356.501 23.601 L 344.101 46.201 Q 341.701 50.801 337.701 50.801 Q 333.701 50.801 331.301 46.201 L 318.901 23.601 L 318.901 64.501 Q 318.901 71.101 312.401 71.101 A 9.501 9.501 0 0 1 309.789 70.774 Q 305.801 69.631 305.801 64.501 Z" id="6" vector-effect="non-scaling-stroke"/>
<path fill="#ffb703" d="M 383.601 64.501 L 383.601 29.501 Q 383.601 23.84 388.236 23.035 A 9.739 9.739 0 0 1 389.901 22.901 A 8.634 8.634 0 0 1 392.432 23.24 Q 396.201 24.396 396.201 29.501 L 396.201 64.501 Q 396.201 70.162 391.565 70.968 A 9.739 9.739 0 0 1 389.901 71.101 A 8.634 8.634 0 0 1 387.369 70.762 Q 383.601 69.606 383.601 64.501 Z M 389.801 15.701 Q 386.601 15.701 384.351 13.401 A 7.589 7.589 0 0 1 382.101 7.907 A 9.762 9.762 0 0 1 382.101 7.901 A 7.415 7.415 0 0 1 384.281 2.522 A 8.885 8.885 0 0 1 384.351 2.451 A 7.413 7.413 0 0 1 389.701 0.202 A 9.041 9.041 0 0 1 389.801 0.201 A 7.415 7.415 0 0 1 395.18 2.381 A 8.885 8.885 0 0 1 395.251 2.451 A 7.413 7.413 0 0 1 397.5 7.801 A 9.041 9.041 0 0 1 397.501 7.901 A 7.588 7.588 0 0 1 395.26 13.392 A 8.96 8.96 0 0 1 395.251 13.401 A 7.33 7.33 0 0 1 389.95 15.7 A 8.812 8.812 0 0 1 389.801 15.701 Z" id="7" vector-effect="non-scaling-stroke"/>
<path fill="#ffb703" d="M 409.101 64.501 L 409.101 29.501 Q 409.101 23.718 413.4 23.002 A 7.923 7.923 0 0 1 414.701 22.901 Q 418.152 22.901 419.624 23.891 A 2.3 2.3 0 0 1 420.701 25.601 L 421.001 28.301 A 18.602 18.602 0 0 1 424.294 25.01 A 22.919 22.919 0 0 1 426.151 23.701 Q 429.301 21.701 433.601 21.701 A 19.1 19.1 0 0 1 439.439 22.555 A 15.564 15.564 0 0 1 445.851 26.501 A 15.207 15.207 0 0 1 449.477 32.646 Q 450.25 35.041 450.491 37.95 A 33.288 33.288 0 0 1 450.601 40.701 L 450.601 64.501 Q 450.601 70.162 445.965 70.968 A 9.739 9.739 0 0 1 444.301 71.101 A 8.634 8.634 0 0 1 441.769 70.762 Q 438.001 69.606 438.001 64.501 L 438.001 43.801 A 21.963 21.963 0 0 0 437.82 40.883 Q 437.62 39.397 437.2 38.191 A 8.605 8.605 0 0 0 435.951 35.801 A 6.502 6.502 0 0 0 431.253 33.143 A 8.422 8.422 0 0 0 430.401 33.101 A 8.554 8.554 0 0 0 427.061 33.736 A 8.042 8.042 0 0 0 424.151 35.851 Q 422.399 37.818 421.899 41.396 A 22.546 22.546 0 0 0 421.701 44.501 L 421.701 64.501 Q 421.701 70.162 417.065 70.968 A 9.739 9.739 0 0 1 415.401 71.101 A 8.634 8.634 0 0 1 412.869 70.762 Q 409.101 69.606 409.101 64.501 Z" id="8" vector-effect="non-scaling-stroke"/>
<path fill="#ffb703" d="M 494.801 26.201 L 494.801 6.601 Q 494.801 0.94 499.436 0.135 A 9.739 9.739 0 0 1 501.101 0.001 A 8.634 8.634 0 0 1 503.632 0.34 Q 507.401 1.496 507.401 6.601 L 507.401 64.501 Q 507.401 70.418 503.06 71.03 A 7.59 7.59 0 0 1 502.001 71.101 Q 496.601 71.101 496.301 68.801 L 496.001 66.501 A 16.85 16.85 0 0 1 489.725 71.01 A 17.014 17.014 0 0 1 483.301 72.201 A 26.154 26.154 0 0 1 475.82 71.161 A 22.987 22.987 0 0 1 471.251 69.251 Q 465.901 66.301 462.851 60.651 Q 459.801 55.001 459.801 47.001 A 35.961 35.961 0 0 1 460.304 40.824 Q 460.942 37.166 462.389 34.157 A 21.729 21.729 0 0 1 462.851 33.251 Q 465.901 27.601 471.251 24.651 A 23.909 23.909 0 0 1 481.139 21.78 A 29.017 29.017 0 0 1 483.301 21.701 Q 490.001 21.701 494.801 26.201 Z M 483.801 60.801 A 10.432 10.432 0 0 0 491.517 57.602 A 12.771 12.771 0 0 0 491.851 57.251 Q 494.59 54.259 495.02 49.03 A 24.734 24.734 0 0 0 495.101 47.001 A 22.777 22.777 0 0 0 494.783 43.068 Q 494.407 40.925 493.584 39.227 A 10.698 10.698 0 0 0 491.851 36.651 A 10.687 10.687 0 0 0 487.575 33.733 A 11.027 11.027 0 0 0 483.801 33.101 A 10.588 10.588 0 0 0 478.937 34.209 A 10.805 10.805 0 0 0 475.801 36.651 Q 473.179 39.56 472.705 44.651 A 25.394 25.394 0 0 0 472.601 47.001 Q 472.601 51.614 474.118 54.734 A 10.764 10.764 0 0 0 475.801 57.251 A 10.271 10.271 0 0 0 483.207 60.787 A 12.591 12.591 0 0 0 483.801 60.801 Z" id="9" vector-effect="non-scaling-stroke"/></g></svg>